<svg id="visual" viewBox="0 0 1920 1080" width="1920" height="1080" xmlns="http://www.w3.org/2000/svg" xmlns:xlink="http://www.w3.org/1999/xlink" version="1.1"><rect x="0" y="0" width="1920" height="1080" fill="#ffffff"></rect><g fill="none" stroke="#0056b3" stroke-width="2"><circle r="116" cx="1183" cy="33"></circle><circle r="65" cx="166" cy="784"></circle><circle r="86" cx="1902" cy="45"></circle><circle r="68" cx="832" cy="699"></circle><circle r="77" cx="694" cy="411"></circle><circle r="94" cx="921" cy="1007"></circle><circle r="98" cx="1840" cy="856"></circle><circle r="98" cx="1406" cy="679"></circle><circle r="94" cx="619" cy="55"></circle><circle r="64" cx="1151" cy="433"></circle><circle r="88" cx="1421" cy="415"></circle><circle r="101" cx="375" cy="479"></circle><circle r="76" cx="939" cy="232"></circle><circle r="100" cx="1708" cy="298"></circle><circle r="71" cx="88" cy="357"></circle><circle r="111" cx="340" cy="1013"></circle><circle r="93" cx="272" cy="92"></circle><circle r="78" cx="1657" cy="643"></circle><circle r="66" cx="1398" cy="174"></circle><circle r="91" cx="1426" cy="934"></circle><circle r="113" cx="598" cy="819"></circle><circle r="98" cx="36" cy="15"></circle><circle r="96" cx="1162" cy="750"></circle><circle r="111" cx="1685" cy="1044"></circle><circle r="103" cx="1848" cy="496"></circle><circle r="79" cx="1656" cy="55"></circle><circle r="78" cx="1150" cy="1071"></circle><circle r="83" cx="82" cy="1006"></circle><circle r="99" cx="463" cy="232"></circle><circle r="111" cx="605" cy="1063"></circle></g></svg>